<svg xmlns="http://www.w3.org/2000/svg" viewBox="0 0 256 256" role="img" aria-labelledby="title desc">
  <title id="title">DevPrism logo</title>
  <desc id="desc">A simple three-dimensional red and black prism mark for DevPrism.</desc>
  <defs>
    <linearGradient id="bg" x1="32" x2="224" y1="24" y2="232" gradientUnits="userSpaceOnUse">
      <stop offset="0" stop-color="#18181B"/>
      <stop offset="0.55" stop-color="#09090B"/>
      <stop offset="1" stop-color="#000000"/>
    </linearGradient>
    <linearGradient id="top" x1="70" x2="186" y1="45" y2="111" gradientUnits="userSpaceOnUse">
      <stop offset="0" stop-color="#FCA5A5"/>
      <stop offset="0.42" stop-color="#EF4444"/>
      <stop offset="1" stop-color="#7F1D1D"/>
    </linearGradient>
    <linearGradient id="left" x1="51" x2="128" y1="86" y2="216" gradientUnits="userSpaceOnUse">
      <stop offset="0" stop-color="#DC2626"/>
      <stop offset="1" stop-color="#450A0A"/>
    </linearGradient>
    <linearGradient id="right" x1="128" x2="205" y1="86" y2="216" gradientUnits="userSpaceOnUse">
      <stop offset="0" stop-color="#991B1B"/>
      <stop offset="1" stop-color="#111111"/>
    </linearGradient>
    <linearGradient id="core" x1="88" x2="168" y1="82" y2="190" gradientUnits="userSpaceOnUse">
      <stop offset="0" stop-color="#FFFFFF" stop-opacity="0.5"/>
      <stop offset="0.42" stop-color="#EF4444" stop-opacity="0.42"/>
      <stop offset="1" stop-color="#0A0A0A" stop-opacity="0.62"/>
    </linearGradient>
    <filter id="shadow" x="-20%" y="-20%" width="140%" height="150%" color-interpolation-filters="sRGB">
      <feDropShadow dx="0" dy="18" stdDeviation="15" flood-color="#000000" flood-opacity="0.48"/>
    </filter>
  </defs>
  <rect width="256" height="256" rx="56" fill="url(#bg)"/>
  <path d="M49 183c32 22 117 27 158 2 13-8 13-22 0-30-33-19-114-22-153-5-17 8-20 22-5 33Z" fill="#000000" opacity="0.44"/>
  <g filter="url(#shadow)">
    <path d="M128 34 207 80 128 126 49 80 128 34Z" fill="url(#top)"/>
    <path d="M49 80 128 126v96l-79-46V80Z" fill="url(#left)"/>
    <path d="M207 80 128 126v96l79-46V80Z" fill="url(#right)"/>
    <path d="M128 68 169 91l-41 24-41-24 41-23Z" fill="#FFFFFF" opacity="0.18"/>
    <path d="M128 126v96" stroke="#FFFFFF" stroke-opacity="0.22" stroke-width="3"/>
    <path d="M49 80 128 126 207 80" fill="none" stroke="#FEE2E2" stroke-opacity="0.36" stroke-width="3" stroke-linejoin="round"/>
    <path d="M86 104 128 80l42 24v49c0 35-17 56-42 62-25-6-42-27-42-62v-49Z" fill="url(#core)" opacity="0.78"/>
    <path d="M86 104 128 80l42 24" fill="none" stroke="#FFFFFF" stroke-opacity="0.3" stroke-width="3" stroke-linecap="round" stroke-linejoin="round"/>
    <path d="M64 93v73l45 26" fill="none" stroke="#FCA5A5" stroke-opacity="0.26" stroke-width="2" stroke-linecap="round"/>
    <path d="M192 93v73l-45 26" fill="none" stroke="#7F1D1D" stroke-opacity="0.38" stroke-width="2" stroke-linecap="round"/>
  </g>
  <path d="M73 55c15-10 33-16 55-16s40 6 55 16" fill="none" stroke="#FFFFFF" stroke-opacity="0.1" stroke-width="5" stroke-linecap="round"/>
</svg>
